/* XPM */
static char *yaml[] = {
/* columns rows colors chars-per-pixel */
"28 15 223 2 ",
"   c #0038F9",
".  c #0043F9",
"X  c #0044F9",
"o  c #0047F9",
"O  c #0048F9",
"+  c #004AF9",
"@  c #004BF9",
"#  c #004CF9",
"$  c #004DF9",
"%  c #004EF9",
"&  c #004FF9",
"*  c #0051F9",
"=  c #0052F9",
"-  c #0053F9",
";  c #0055F9",
":  c #0056F9",
">  c #0057F9",
",  c #0055FA",
"<  c #0056FA",
"1  c #0058F9",
"2  c #0058FA",
"3  c #0059FA",
"4  c #005AFA",
"5  c #005BFA",
"6  c #005CFA",
"7  c #005DFA",
"8  c #005EFA",
"9  c #005FFA",
"0  c #0060FA",
"q  c #0061FA",
"w  c #0161FA",
"e  c #0460FA",
"r  c #0461FA",
"t  c #0561FA",
"y  c #0660FA",
"u  c #0761FA",
"i  c #0B62FA",
"p  c #0C61FA",
"a  c #0C62FA",
"s  c #0D62FA",
"d  c #0E62FA",
"f  c #0F62FA",
"g  c #0D64FA",
"h  c #1062FA",
"j  c #1063FA",
"k  c #1163FA",
"l  c #1263FA",
"z  c #1363FA",
"x  c #1464FA",
"c  c #1564FA",
"v  c #1565FA",
"b  c #1664FA",
"n  c #1764FA",
"m  c #1665FA",
"M  c #1765FA",
"N  c #1466FA",
"B  c #1767FA",
"V  c #1865FA",
"C  c #1965FA",
"Z  c #1A65FA",
"A  c #1B65FA",
"S  c #1B66FA",
"D  c #1C66FA",
"F  c #1D66FA",
"G  c #1D67FA",
"H  c #1E66FA",
"J  c #1F66FA",
"K  c #1F67FA",
"L  c #1E68FA",
"P  c #2066FA",
"I  c #2167FA",
"U  c #2068FA",
"Y  c #2168FA",
"T  c #2268FA",
"R  c #2568FA",
"E  c #2669FA",
"W  c #276AFA",
"Q  c #276BFA",
"!  c #286AFA",
"~  c #2B6BFA",
"^  c #2C6BFA",
"/  c #2D6BFA",
"(  c #2C6CFA",
")  c #2D6CFA",
"_  c #2E6DFA",
"`  c #2C6FFA",
"'  c #346FFA",
"]  c #3770FA",
"[  c #3870FA",
"{  c #3A71FA",
"}  c #3C72FA",
"|  c #3E72FA",
" . c #3975FA",
".. c #3A74FA",
"X. c #3F75FA",
"o. c #3D77FA",
"O. c #4676FA",
"+. c #4078FA",
"@. c #497AFA",
"#. c #4E7AFA",
"$. c #507BFA",
"%. c #517BFA",
"&. c #5080FA",
"*. c #5081FA",
"=. c #5181FA",
"-. c #5281FA",
";. c #5481FA",
":. c #5483FA",
">. c #5784FA",
",. c #5786FA",
"<. c #5885FA",
"1. c #5D87FB",
"2. c #5D89FB",
"3. c #638BFB",
"4. c #678AFB",
"5. c #678DFB",
"6. c #678EFB",
"7. c #6A8FFB",
"8. c #6990FB",
"9. c #6B91FB",
"0. c #6D95FB",
"q. c #7195FB",
"w. c #7096FB",
"e. c #7297FB",
"r. c #7699FB",
"t. c #7A9AFB",
"y. c #7B9EFB",
"u. c #7F9FFB",
"i. c #819BFB",
"p. c #829CFB",
"a. c #809EFB",
"s. c #869DFB",
"d. c #879EFB",
"f. c #889FFB",
"g. c #81A0FB",
"h. c #89A0FB",
"j. c #8AA1FB",
"k. c #88A4FB",
"l. c #8BA7FB",
"z. c #8EA6FB",
"x. c #91ABFB",
"c. c #94ADFB",
"v. c #95ADFB",
"b. c #96AEFB",
"n. c #91ABFC",
"m. c #9AB2FC",
"M. c #9BB3FC",
"N. c #9CB3FC",
"B. c #9DB4FC",
"V. c #9FB4FC",
"C. c #9FB5FC",
"Z. c #A0B6FC",
"A. c #A0B7FC",
"S. c #A1B7FC",
"D. c #A2B7FC",
"F. c #A3BBFC",
"G. c #A5B9FC",
"H. c #A9BBFC",
"J. c #A8BCFC",
"K. c #A8BDFC",
"L. c #AFBFFC",
"P. c #B1C1FC",
"I. c #B5C6FD",
"U. c #B9C7FC",
"Y. c #B5C8FC",
"T. c #B7CAFC",
"R. c #B9C8FD",
"E. c #BCC9FD",
"W. c #BCCBFD",
"Q. c #C1CEFD",
"!. c #C1D1FD",
"~. c #C4D5FD",
"^. c #C6D4FD",
"/. c #CBD8FD",
"(. c #CBDBFD",
"). c #CDD9FD",
"_. c #CCDAFD",
"`. c #D0D9FD",
"'. c #D1DAFD",
"]. c #D0DCFD",
"[. c #D2DEFD",
"{. c #D3DFFD",
"}. c #D1DEFE",
"|. c #D7DFFE",
" X c #D3E0FD",
".X c #D7E3FD",
"XX c #D7E2FE",
"oX c #DDE5FE",
"OX c #E1EBFE",
"+X c #E5ECFE",
"@X c #E4EDFE",
"#X c #E5EDFE",
"$X c #E6ECFE",
"%X c #E7ECFE",
"&X c #E6EEFE",
"*X c #E8EDFE",
"=X c #E8EEFE",
"-X c #E9EEFE",
";X c #EAF0FE",
":X c #EAF1FE",
">X c #EDF1FE",
",X c #ECF2FE",
"<X c #EFF3FE",
"1X c #F0F4FE",
"2X c #F0F5FF",
"3X c #F1F6FE",
"4X c #F1F7FE",
"5X c #F3F6FE",
"6X c #F4F7FE",
"7X c #F1F8FE",
"8X c #F3F9FE",
"9X c #F5F9FF",
"0X c #F6F8FE",
"qX c #F7F9FE",
"wX c #F9FAFF",
"eX c #F8FBFF",
"rX c #F9FBFF",
"tX c #F8FCFE",
"yX c #FAFDFE",
"uX c #FAFEFF",
"iX c #FDFEFF",
"pX c #FDFFFF",
"aX c white",
/* pixels */
"c x H K c c x V I V C T V x x M Y A n I Z x c c c c c c ",
"c V 4 2 c c V q , q 9 , d n n z < 7 s ; 9 Z x c c c c c ",
"x r ;.1.n z w ] 5._ X.6.U h k m 3.@.Q 7.} 9 Z x c c c c ",
"f 1 !.).6 n > 4.,X9.u.tXy.1 2 0.8Xb.*.<Xp.% E l c c c c ",
"F * K.&X .5 = n.3Xo.k.aX{.8 4 ^.aXv.<.iXj.@ ! l c c c c ",
"K 7 B  XT.. +.OXA.  c.pXuX8.,.9XaXx.>.qXd.# W l c c c c ",
"z R & e.:Xw.Y..XN O B.;X(._.~.}.#XV.:.rXf.# W l c c c c ",
"x M P - F.7X@X2.4 - B.-Xq.4XyXr.oXG.=.rXf.@ E j x x c c ",
"c l I 3 ` 6XW.@ ^ % N.<XO.g.l.' $XD.=.wXh.& ( Z F Z c c ",
"c x S 9 v %XL.# ^ % M.1X$.@ + [ =XZ.-.rXs.o J 9 0 a c c ",
"c x D 7 U *XP.% ~ & m.>X#.0 u [ +XC.=.0Xi.X g 7 7 9 c c ",
"c x F 7 L 5XU.@ / $ S.eX%.6 7 { 2XJ.&.aX$X/.[.].XXJ.9 j ",
"c x Z 0 G R.z.; R : t.E.| 9 0 ) I.a...Q.'.'.`.`.|.H.0 j ",
"c c c c b p h b c b f e z c c x y f z 9 6 5 5 5 5 9 c c ",
"c c c c x 0 t n x b a 0 z b c x 0 i z 0 0 0 0 0 9 q c c "
};
